# xmcd
#
# Track frame offsets:
#	150
#	13722
#	27182
#	46957
#	66500
#	88095
#	104497
#	125827
#	149520
#	171180
#	192322
#	213750
#	239675
#	261570
#	284510
#	303072
#
# Disc length: 4346 seconds
#
# Revision: 1
# Processed by: cddbd v1.5.2PL0 Copyright (c) Steve Scherf et al.
# Submitted via: audiograbber 1.83.01
#
DISCID=f810f810
DTITLE=Various Artist - CDX and Dance Trax
DYEAR=1995
DGENRE=Country
TTITLE0=Mary Karlzen - I'd Be Lying
TTITLE1=Daniel Ray Edwards - You Win Again
TTITLE2=Toby Keith - A Little Less Talk (A Lot More Action) (Dance Mix)
TTITLE3=Brother Phelps - Anyway The Wind Blows (Dance Mix)
TTITLE4=Daron Norwood - Bad Dog, No Biscuit (Dance Mix)
TTITLE5=Boy Howdy - Bigger Fish To Fry (Dance Mix)
TTITLE6=Bryan White - Eugene, You Genius (Dance Mix)
TTITLE7=Rhett Akins - I Brake For Brunettes (Dance Mix)
TTITLE8=Mark Chesnutt - Goin' Through The Big D (Dance Mix)
TTITLE9=Tim McGraw - Indian Outlaw (Dance Mix with Intro)
TTITLE10=Jesse Hunter - Long Legged Hannah (Dance Mix)
TTITLE11=Confederate Railroad - Redneck Romeo (Dance Mix)
TTITLE12=Chely Wright - Sea Of Cowboy Hats (Dance Mix)
TTITLE13=Joe Diffie - Third Rock From The Sun (Dance Mix)
TTITLE14=Dennis Robbins - Travelin' Music (Dance Mix)
TTITLE15=Tracy Byrd - Watermelon Crawl (Back Beat Mix)
EXTD=
EXTT0=
EXTT1=
EXTT2=
EXTT3=
EXTT4=
EXTT5=
EXTT6=
EXTT7=
EXTT8=
EXTT9=
EXTT10=
EXTT11=
EXTT12=
EXTT13=
EXTT14=
EXTT15=
PLAYORDER=
